<?xml version="1.0" encoding="UTF-8"?>
<svg version="1.1" xmlns="http://www.w3.org/2000/svg" width="1774" height="498">
<path d="M0 0 C585.42 0 1170.84 0 1774 0 C1774 164.34 1774 328.68 1774 498 C1188.58 498 603.16 498 0 498 C0 333.66 0 169.32 0 0 Z " fill="#FEFEFE" transform="translate(0,0)"/>
<path d="M0 0 C0.65452148 0.27875977 1.30904297 0.55751953 1.98339844 0.84472656 C7.89937323 3.38384946 13.44253683 6.38242398 19 9.625 C19.85722656 10.11484375 20.71445312 10.6046875 21.59765625 11.109375 C22.41105469 11.58117187 23.22445312 12.05296875 24.0625 12.5390625 C24.79597656 12.96396973 25.52945313 13.38887695 26.28515625 13.82666016 C28 15 28 15 29 17 C29.99 17.33 30.98 17.66 32 18 C32 18.66 32 19.32 32 20 C32.680625 20.04125 33.36125 20.0825 34.0625 20.125 C39.84461875 21.84733325 43.82416032 26.82416032 48 31 C49.26809394 32.08653864 50.53928113 33.16947134 51.8125 34.25 C55.95856449 37.85960513 59.50047022 41.77013357 63 46 C64.04414062 47.22976562 64.04414062 47.22976562 65.109375 48.484375 C66.16898437 49.76054687 66.16898437 49.76054687 67.25 51.0625 C67.89453125 51.83722656 68.5390625 52.61195313 69.203125 53.41015625 C71.31906564 56.45987069 72.5664682 59.57849154 74 63 C75.36927927 65.56083195 76.84575064 68.05654443 78.3125 70.5625 C90.58373924 92.01726399 99.5437803 118.07085198 100 143 C100.01901367 143.64146973 100.03802734 144.28293945 100.05761719 144.94384766 C101.02433341 179.64262093 92.71668132 215.56729806 72.2265625 244.0703125 C70.90301832 246.01330691 70.90301832 246.01330691 70.0546875 248.4453125 C66.77773492 256.38281987 59.72161272 262.34773951 53.37109375 267.84765625 C51.2055895 269.81337757 49.36256003 271.81428049 47.5 274.0625 C43.59706728 278.68097039 39.05602068 282.67646193 34 286 C33.01 286 32.02 286 31 286 C30.67 286.99 30.34 287.98 30 289 C28.12090067 289.97310501 26.23513346 290.93569374 24.31640625 291.828125 C21.8670432 293.06726314 19.69263457 294.49976524 17.4375 296.0625 C13.76386859 298.57239543 10.14315072 300.34273971 6 302 C4.80852997 302.61739811 3.62127975 303.242982 2.4375 303.875 C-3.52256771 306.83262759 -9.63780167 309.07145863 -16 311 C-16.86367188 311.2666748 -17.72734375 311.53334961 -18.6171875 311.80810547 C-33.82458716 316.31043321 -48.36567175 317.57160046 -64.125 317.5625 C-64.98646637 317.56512848 -65.84793274 317.56775696 -66.73550415 317.57046509 C-111.80423489 317.5548884 -152.12404502 298.13566641 -184 267 C-191.13861766 259.76301556 -208 242.42440226 -208 232 C-208.66 232 -209.32 232 -210 232 C-210.33 230.02 -210.66 228.04 -211 226 C-211.66 226 -212.32 226 -213 226 C-213.30292969 225.20078125 -213.60585937 224.4015625 -213.91796875 223.578125 C-214.33691406 222.47984375 -214.75585938 221.3815625 -215.1875 220.25 C-215.87199219 218.45175781 -215.87199219 218.45175781 -216.5703125 216.6171875 C-217.80971321 213.48143598 -219.16401864 210.44123553 -220.5625 207.375 C-223.9798797 199.26140983 -225.47566951 190.63326834 -227 182 C-227.17950195 181.04536865 -227.35900391 180.0907373 -227.54394531 179.10717773 C-229.12369618 170.02502324 -229.39839194 161.12780865 -229.375 151.9375 C-229.37478851 151.16753693 -229.37457703 150.39757385 -229.37435913 149.60427856 C-229.34070863 137.30238828 -228.28633421 125.89579016 -225 114 C-224.5966941 112.40812402 -224.19569134 110.81566294 -223.796875 109.22265625 C-221.55078004 100.48883679 -218.74602019 92.21888012 -215 84 C-214.71616455 83.33097656 -214.4323291 82.66195312 -214.13989258 81.97265625 C-211.75858469 76.41847332 -208.98272986 71.26654863 -205.8125 66.125 C-205.08740234 64.94719971 -205.08740234 64.94719971 -204.34765625 63.74560547 C-200.36815828 57.39019012 -196.00539224 51.59076863 -191 46 C-190.13632813 45.01644531 -189.27265625 44.03289062 -188.3828125 43.01953125 C-142.3173657 -8.84321168 -64.22045296 -29.6334046 0 0 Z " fill="#1ABDB5" transform="translate(350,82)"/>
<path d="M0 0 C0.65452148 0.27875977 1.30904297 0.55751953 1.98339844 0.84472656 C7.89937323 3.38384946 13.44253683 6.38242398 19 9.625 C19.85722656 10.11484375 20.71445312 10.6046875 21.59765625 11.109375 C22.41105469 11.58117187 23.22445312 12.05296875 24.0625 12.5390625 C24.79597656 12.96396973 25.52945313 13.38887695 26.28515625 13.82666016 C28 15 28 15 29 17 C29.99 17.33 30.98 17.66 32 18 C32 18.66 32 19.32 32 20 C32.680625 20.04125 33.36125 20.0825 34.0625 20.125 C39.84461875 21.84733325 43.82416032 26.82416032 48 31 C49.26809394 32.08653864 50.53928113 33.16947134 51.8125 34.25 C55.95856449 37.85960513 59.50047022 41.77013357 63 46 C64.04414062 47.22976562 64.04414062 47.22976562 65.109375 48.484375 C66.16898437 49.76054687 66.16898437 49.76054687 67.25 51.0625 C67.89453125 51.83722656 68.5390625 52.61195313 69.203125 53.41015625 C71.31906564 56.45987069 72.5664682 59.57849154 74 63 C75.36927927 65.56083195 76.84575064 68.05654443 78.3125 70.5625 C90.58373924 92.01726399 99.5437803 118.07085198 100 143 C100.01901367 143.64146973 100.03802734 144.28293945 100.05761719 144.94384766 C101.02433341 179.64262093 92.71668132 215.56729806 72.2265625 244.0703125 C70.90301832 246.01330691 70.90301832 246.01330691 70.0546875 248.4453125 C66.77773492 256.38281987 59.72161272 262.34773951 53.37109375 267.84765625 C51.2055895 269.81337757 49.36256003 271.81428049 47.5 274.0625 C43.59706728 278.68097039 39.05602068 282.67646193 34 286 C33.01 286 32.02 286 31 286 C30.67 286.99 30.34 287.98 30 289 C28.12090067 289.97310501 26.23513346 290.93569374 24.31640625 291.828125 C21.8670432 293.06726314 19.69263457 294.49976524 17.4375 296.0625 C13.76386859 298.57239543 10.14315072 300.34273971 6 302 C4.80852997 302.61739811 3.62127975 303.242982 2.4375 303.875 C-3.52256771 306.83262759 -9.63780167 309.07145863 -16 311 C-16.86367188 311.2666748 -17.72734375 311.53334961 -18.6171875 311.80810547 C-33.82458716 316.31043321 -48.36567175 317.57160046 -64.125 317.5625 C-64.98646637 317.56512848 -65.84793274 317.56775696 -66.73550415 317.57046509 C-111.80423489 317.5548884 -152.12404502 298.13566641 -184 267 C-191.13861766 259.76301556 -208 242.42440226 -208 232 C-208.66 232 -209.32 232 -210 232 C-210.33 230.02 -210.66 228.04 -211 226 C-211.66 226 -212.32 226 -213 226 C-213.30292969 225.20078125 -213.60585937 224.4015625 -213.91796875 223.578125 C-214.33691406 222.47984375 -214.75585938 221.3815625 -215.1875 220.25 C-215.87199219 218.45175781 -215.87199219 218.45175781 -216.5703125 216.6171875 C-217.80971321 213.48143598 -219.16401864 210.44123553 -220.5625 207.375 C-223.9798797 199.26140983 -225.47566951 190.63326834 -227 182 C-227.17950195 181.04536865 -227.35900391 180.0907373 -227.54394531 179.10717773 C-229.12369618 170.02502324 -229.39839194 161.12780865 -229.375 151.9375 C-229.37478851 151.16753693 -229.37457703 150.39757385 -229.37435913 149.60427856 C-229.34070863 137.30238828 -228.28633421 125.89579016 -225 114 C-224.5966941 112.40812402 -224.19569134 110.81566294 -223.796875 109.22265625 C-221.55078004 100.48883679 -218.74602019 92.21888012 -215 84 C-214.71616455 83.33097656 -214.4323291 82.66195312 -214.13989258 81.97265625 C-211.75858469 76.41847332 -208.98272986 71.26654863 -205.8125 66.125 C-205.08740234 64.94719971 -205.08740234 64.94719971 -204.34765625 63.74560547 C-200.36815828 57.39019012 -196.00539224 51.59076863 -191 46 C-190.13632813 45.01644531 -189.27265625 44.03289062 -188.3828125 43.01953125 C-142.3173657 -8.84321168 -64.22045296 -29.6334046 0 0 Z M-103.6875 16.5625 C-104.82654785 16.91820068 -105.9655957 17.27390137 -107.13916016 17.64038086 C-116.30587082 20.59476321 -124.63886085 24.25786137 -133 29 C-134.07121094 29.57492188 -135.14242187 30.14984375 -136.24609375 30.7421875 C-143.5096911 34.75798527 -149.76866742 39.5366748 -156 45 C-156.49532227 45.42829102 -156.99064453 45.85658203 -157.50097656 46.29785156 C-169.12881325 56.39007553 -178.11090399 67.82077758 -186 81 C-186.34949707 81.5770166 -186.69899414 82.1540332 -187.05908203 82.74853516 C-193.50579543 93.5476136 -197.36277763 105.00391138 -201 117 C-201.35320312 118.11375 -201.70640625 119.2275 -202.0703125 120.375 C-204.64409323 130.41058199 -205.29659354 140.15575239 -205.20581055 150.46728516 C-205.18723107 152.6566908 -205.18530376 154.84567896 -205.18554688 157.03515625 C-205.55835841 163.71947777 -205.55835841 163.71947777 -204 170 C-203.72771117 171.68404722 -203.48246288 173.37249489 -203.25 175.0625 C-202.03692711 182.60346802 -199.87819632 189.76660245 -197.59960938 197.04003906 C-197.08824029 198.71156635 -196.62492882 200.39767091 -196.171875 202.0859375 C-187.61114934 232.04847731 -161.39846398 258.99832241 -135 274 C-134.34193359 274.37688965 -133.68386719 274.7537793 -133.00585938 275.14208984 C-113.93354774 285.96075584 -93.03347311 292.28346429 -71 293 C-69.90429688 293.0515625 -68.80859375 293.103125 -67.6796875 293.15625 C-33.26328141 294.04825189 2.41722659 281.86066498 28.140625 258.8125 C30.65382676 256.36265627 32.88643064 253.71547944 35.1484375 251.03515625 C37.15459001 248.83008145 39.29686023 246.93602329 41.5625 245 C47.34467269 239.96645614 51.2247225 234.97955182 54.16064453 227.88989258 C55.01460283 225.96712027 55.97783269 224.16550002 57.015625 222.3359375 C75.1604536 190.32518584 80.05989309 152.27927491 71.25 116.5625 C64.46534916 92.33878367 52.0532885 71.90685105 35.1796875 53.3984375 C32.54621278 50.50067141 29.97474907 47.55242919 27.41015625 44.59375 C25.24689142 41.91469302 25.24689142 41.91469302 22.1875 40.6875 C20 40 20 40 17.7265625 37.69921875 C6.16945018 26.2580087 -11.16799273 20.64266044 -26.375 16.125 C-27.37313721 15.82650146 -28.37127441 15.52800293 -29.3996582 15.22045898 C-40.22564743 12.13207709 -50.61355228 11.83583322 -61.82202148 11.86962891 C-63.93024921 11.87498159 -66.03826314 11.86965717 -68.14648438 11.86328125 C-80.63779358 11.85254381 -91.70936819 12.78475414 -103.6875 16.5625 Z " fill="#1DBEB5" transform="translate(350,82)"/>
<path d="M0 0 C10.89 0 21.78 0 33 0 C33.05607422 6.79078125 33.05607422 6.79078125 33.11328125 13.71875 C33.14358275 16.59899529 33.17474468 19.4791804 33.20898438 22.359375 C33.26316485 26.92379605 33.31427985 31.48809809 33.34643555 36.05273438 C33.37258145 39.73581886 33.41306173 43.41850019 33.46318626 47.10133362 C33.47977917 48.50137795 33.49134039 49.90149189 33.49761391 51.30162048 C33.48493085 64.00756131 33.48493085 64.00756131 39.4375 74.875 C45.66825238 80.04196539 52.28244064 79.73356982 60.04248047 79.22509766 C64.74594741 78.68424002 68.46457928 77.13335327 72 74 C76.03600472 68.1055559 78.10264133 62.17413612 78.20532227 55.05981445 C78.22526749 53.83877518 78.24521271 52.6177359 78.26576233 51.35969543 C78.28247482 50.04087875 78.29918732 48.72206207 78.31640625 47.36328125 C78.3369826 45.99992756 78.35797925 44.63658015 78.37937927 43.27323914 C78.4345297 39.68778578 78.48396987 36.10227552 78.53222656 32.51672363 C78.58249299 28.8568008 78.63815219 25.19696043 78.69335938 21.53710938 C78.80085494 14.35814279 78.9023189 7.17910755 79 0 C83.53897705 -0.02465392 88.07791543 -0.04283789 92.61694336 -0.05493164 C94.16219766 -0.0599714 95.70744716 -0.0668032 97.25268555 -0.07543945 C99.46925029 -0.08752076 101.68575218 -0.09323173 103.90234375 -0.09765625 C104.5971434 -0.10281754 105.29194305 -0.10797882 106.00779724 -0.11329651 C107.6722933 -0.11349277 109.33665499 -0.06189129 111 0 C112.56363406 1.56363406 112.13883189 3.08981149 112.15390015 5.26454163 C112.16250061 6.18517899 112.17110107 7.10581635 112.17996216 8.05435181 C112.18422211 9.07290253 112.18848206 10.09145325 112.19287109 11.14086914 C112.20513733 12.74113701 112.20513733 12.74113701 112.21765137 14.37373352 C112.24258843 17.92753534 112.25905288 21.48129666 112.2734375 25.03515625 C112.27876118 26.24991575 112.28408485 27.46467525 112.28956985 28.71624565 C112.31635211 35.16018926 112.33570069 41.60411326 112.35009766 48.0480957 C112.36542553 54.67519178 112.41133963 61.30182649 112.4624691 67.92875004 C112.49631734 73.0446777 112.507695 78.16048862 112.51332474 83.27651787 C112.52000115 85.71669772 112.53512778 88.1568709 112.55921555 90.59694099 C112.7458497 110.66699096 111.07613788 129.33527109 96.6875 144.875 C84.57543244 155.96427074 70.01083563 160.18715021 54.05786133 160.18530273 C51.96869867 160.18746767 49.88008346 160.20557965 47.79101562 160.22460938 C37.57415371 160.26860885 28.69979669 159.23326556 19 156 C19 144.78 19 133.56 19 122 C20.65 122.66 22.3 123.32 24 124 C25.7830405 124.54963933 27.57532793 125.07003959 29.375 125.5625 C30.26960938 125.81128906 31.16421875 126.06007813 32.0859375 126.31640625 C43.02224267 128.88189339 57.70840392 130.41417299 68 125 C72.38360333 122.27242459 75.24742749 118.85389898 77 114 C77.9005053 109.3550207 78.50414877 104.70406234 79 100 C78.34 100 77.68 100 77 100 C76.505 101.485 76.505 101.485 76 103 C65.37499926 110.99928217 54.94127498 111.91905016 42 110.72265625 C29.43470007 108.84857032 20.034981 102.26780785 11.9921875 92.58203125 C2.1175599 79.13800364 -0.32066014 66.26865074 -0.1953125 49.90234375 C-0.19157506 48.45789284 -0.18873155 47.01343936 -0.18673706 45.56898499 C-0.17915806 41.79607958 -0.15956 38.023332 -0.1373291 34.25048828 C-0.11311713 29.70822663 -0.10406234 25.16591174 -0.09242249 20.62360382 C-0.07313131 13.74895997 -0.03476929 6.87466136 0 0 Z " fill="#18C9C2" transform="translate(1514,222)"/>
<path d="M0 0 C1.54892944 -0.00942627 1.54892944 -0.00942627 3.12915039 -0.01904297 C18.63437848 0.23495918 32.92845653 5.30037556 44.25 16.1640625 C57.37929732 31.03398636 58.55745346 46.79105674 58.95532227 65.69042969 C59.23823614 77.81080697 60.15994767 90.05355075 64.56640625 101.48046875 C65.65552038 104.42848972 66.44911495 107.47815231 67.3125 110.5 C56.4225 110.5 45.5325 110.5 34.3125 110.5 C29.8125 100.375 29.8125 100.375 28.3125 95.5 C27.81363281 96.15226562 27.31476563 96.80453125 26.80078125 97.4765625 C20.68297485 104.92337173 14.01703987 110.53779471 4.13085938 111.77246094 C-11.96238011 112.87127839 -26.32389197 110.03465954 -38.9375 99.375 C-50.29734644 88.45277204 -57.55708075 73.65236817 -57.98022461 57.77783203 C-58.13187511 41.26852153 -53.88382418 27.90800059 -42.375 15.6875 C-30.21766074 4.22486584 -16.36360749 0.07507908 0 0 Z " fill="#16C9C1" transform="translate(778.6875,221.5)"/>
<path d="M0 0 C1.60343262 0.00845947 1.60343262 0.00845947 3.23925781 0.01708984 C10.6048434 0.13066605 17.33919551 0.56912004 24.25 3.3125 C25.71179687 3.88097656 25.71179687 3.88097656 27.203125 4.4609375 C40.2031181 10.22760111 49.9831693 20.08039143 55.45703125 33.20703125 C61.12837862 48.17698351 61.14951855 64.12774048 54.703125 78.84375 C48.35024415 92.51899153 39.3657721 101.49130549 25.25 107.3125 C24.38761719 107.68503906 23.52523438 108.05757813 22.63671875 108.44140625 C7.00294391 114.26098262 -11.56996753 112.97199462 -26.75 106.3125 C-41.06243524 99.06155507 -49.18966872 88.21512562 -54.76953125 73.42578125 C-59.3028944 59.03099866 -58.2313216 41.93640984 -51.359375 28.6171875 C-43.34089229 14.4793364 -31.66631597 6.00888434 -16.1484375 1.1953125 C-10.80744887 -0.07296794 -5.46444142 -0.02991171 0 0 Z " fill="#16C9C1" transform="translate(1375.75,221.6875)"/>
<path d="M0 0 C1.23637207 0.00531738 2.47274414 0.01063477 3.74658203 0.01611328 C13.13006319 0.11305261 22.16836281 0.81990455 31.4375 2.25 C36.0575 2.91 40.6775 3.57 45.4375 4.25 C45.4375 14.81 45.4375 25.37 45.4375 36.25 C41.725 35.755 38.0125 35.26 34.1875 34.75 C22.49304014 33.35384504 10.89531009 32.91441952 -0.875 32.875 C-2.05636536 32.86376099 -2.05636536 32.86376099 -3.26159668 32.85229492 C-5.5250579 32.83457564 -7.78730571 32.83909208 -10.05078125 32.8515625 C-11.35571533 32.85494629 -12.66064941 32.85833008 -14.00512695 32.86181641 C-17.81114531 33.27713239 -20.27621881 34.33435013 -23.5625 36.25 C-23.89892166 39.86653287 -23.91115094 41.71930288 -21.88671875 44.80078125 C-15.64195191 51.3814011 -4.8102703 52.74531869 3.75 54.6875 C19.05246842 58.18180752 35.34316528 62.29527344 45 75.75 C50.42473969 84.98925406 51.14852416 96.84204313 48.75 107.2265625 C44.59338556 118.41478303 37.00834243 125.73861541 26.25390625 130.7265625 C16.5855778 134.62122484 7.31548388 136.56248472 -3.09375 136.55078125 C-4.40684143 136.55720894 -4.40684143 136.55720894 -5.74645996 136.56376648 C-7.58845157 136.56946819 -9.43046568 136.57004105 -11.27246094 136.56567383 C-14.02840705 136.56253878 -16.78325043 136.58593916 -19.5390625 136.61132812 C-31.94013824 136.65454955 -44.68868597 136.20793801 -56.5625 132.25 C-56.5625 122.02 -56.5625 111.79 -56.5625 101.25 C-52.2725 101.91 -47.9825 102.57 -43.5625 103.25 C-33.04232138 104.28011246 -22.46092409 104.46282034 -11.89624023 104.49023438 C-9.60170304 104.50010017 -7.30800703 104.53136068 -5.01367188 104.5625 C2.6393545 104.61654782 9.31766301 104.40022955 16.4375 101.25 C16.7675 100.92 17.0975 100.59 17.4375 100.25 C17.58199841 96.83355657 17.58199841 96.83355657 16.4375 93.25 C13.99868459 91.36546082 12.23387306 90.40889957 9.4375 89.25 C8.50421875 88.83878906 7.5709375 88.42757812 6.609375 88.00390625 C0.83513623 85.60745494 -4.72010464 83.91739146 -10.875 82.8125 C-22.54637632 80.66409774 -34.26470191 76.85378933 -43.5625 69.25 C-44.19542969 68.75113281 -44.82835937 68.25226563 -45.48046875 67.73828125 C-52.31714242 61.71792683 -55.34759503 54.21074068 -56.078125 45.2265625 C-56.63244379 33.44038578 -55.63035634 23.98833771 -47.44140625 14.89453125 C-34.53750193 2.61681293 -17.17173697 -0.13311424 0 0 Z " fill="#17C9C1" transform="translate(1195.5625,196.75)"/>
<path d="M0 0 C1.035802 0.52847534 1.035802 0.52847534 2.0925293 1.06762695 C10.32248377 5.42546652 15.96320194 10.86193729 19 19.8125 C21.11094969 29.57793681 20.59563958 37.87886843 15.63671875 46.65234375 C10.3968402 54.2933658 3.38513625 58.15984284 -5.1875 61.3125 C-5.8885083 61.57361572 -6.5895166 61.83473145 -7.31176758 62.10375977 C-14.28321169 64.47307967 -20.80174853 64.79691658 -28.125 64.75 C-29.22779297 64.76998047 -30.33058594 64.78996094 -31.46679688 64.81054688 C-39.10544961 64.8060403 -45.20476246 63.39541146 -52.1875 60.3125 C-48.08405392 66.69972794 -44.48091756 69.96534562 -37.1875 72.3125 C-36.60355469 72.50585938 -36.01960937 72.69921875 -35.41796875 72.8984375 C-32.0002199 73.53290576 -28.58885405 73.50297422 -25.125 73.5 C-24.3414917 73.50064453 -23.5579834 73.50128906 -22.75073242 73.50195312 C-15.99469343 73.44298938 -9.34900434 72.84524288 -2.64624023 72.02416992 C-1.90317627 71.93369385 -1.1601123 71.84321777 -0.39453125 71.75 C0.2502417 71.66621094 0.89501465 71.58242188 1.55932617 71.49609375 C4.63413401 71.24555138 7.72750166 71.3125 10.8125 71.3125 C10.8125 81.2125 10.8125 91.1125 10.8125 101.3125 C6.8525 102.3025 6.8525 102.3025 2.8125 103.3125 C2.0198877 103.51625244 1.22727539 103.72000488 0.41064453 103.92993164 C-7.42723755 105.73057566 -15.31411892 105.75246418 -23.3125 105.75 C-24.04638947 105.7510675 -24.78027893 105.75213501 -25.53640747 105.75323486 C-40.90935131 105.72088536 -53.38166411 103.4875625 -66.1875 94.3125 C-67.04214844 93.71308594 -67.04214844 93.71308594 -67.9140625 93.1015625 C-77.94613438 85.43603066 -84.28513441 72.58483918 -86.1875 60.3125 C-87.76959618 43.31236673 -86.27529266 27.34215578 -75.28125 13.640625 C-69.12439463 6.7945694 -62.51617226 2.24453983 -54.1875 -1.6875 C-52.93646484 -2.31205078 -52.93646484 -2.31205078 -51.66015625 -2.94921875 C-36.44575298 -9.31648003 -14.53646211 -7.53349496 0 0 Z " fill="#16C9C1" transform="translate(1031.1875,227.6875)"/>
<path d="M0 0 C6.91719454 0.83483382 11.89628538 4.52130331 16.625 9.4375 C18.41243021 11.77556037 20.05501536 14.17627305 21.6875 16.625 C23.42252432 19.14358369 25.26143397 21.5312867 27.1730957 23.91699219 C33.55769304 31.91037491 38.61428069 40.53547739 43.625 49.4375 C44.35847656 49.11265625 45.09195313 48.7878125 45.84765625 48.453125 C51.84246358 46.26093104 57.78274857 47.0406789 63.625 49.4375 C63.625 50.0975 63.625 50.7575 63.625 51.4375 C64.181875 51.705625 64.73875 51.97375 65.3125 52.25 C67.85121704 53.55366551 70.27791559 54.80758027 72.625 56.4375 C72.625 57.4275 72.625 58.4175 72.625 59.4375 C73.19347656 59.68113281 73.76195312 59.92476562 74.34765625 60.17578125 C81.11781485 63.92665814 86.53788146 70.97721586 90.625 77.4375 C90.625 78.0975 90.625 78.7575 90.625 79.4375 C91.2025 79.664375 91.78 79.89125 92.375 80.125 C95.1913661 81.76788023 96.70577114 83.83283227 98.625 86.4375 C98.295 87.0975 97.965 87.7575 97.625 88.4375 C92.72873762 88.71997668 90.3362981 88.65395835 86.625 85.4375 C85.8 85.128125 84.975 84.81875 84.125 84.5 C81.625 83.4375 81.625 83.4375 79.921875 81.51171875 C76.93333637 78.81288539 74.25262283 78.19280962 70.375 77.1875 C69.11171875 76.85234375 67.8484375 76.5171875 66.546875 76.171875 C65.58265625 75.92953125 64.6184375 75.6871875 63.625 75.4375 C63.295 73.4575 62.965 71.4775 62.625 69.4375 C63.285 69.4375 63.945 69.4375 64.625 69.4375 C63.50485896 66.07707688 62.41009232 65.02003188 59.8125 62.6875 C59.12542969 62.05328125 58.43835938 61.4190625 57.73046875 60.765625 C55.75603686 59.23663881 55.75603686 59.23663881 53.6184082 59.54492188 C51.42553872 60.28011576 51.42553872 60.28011576 50.5 62.58300781 C50.21125 63.50952148 49.9225 64.43603516 49.625 65.390625 C49.295 66.40253906 48.965 67.41445312 48.625 68.45703125 C48.295 69.52308594 47.965 70.58914062 47.625 71.6875 C43.49186761 84.84571443 43.49186761 84.84571443 39.625 88.4375 C36.875 88.75 36.875 88.75 34.625 88.4375 C37.15204327 93.64952675 41.24273359 96.8255132 45.625 100.4375 C45.295 101.7575 44.965 103.0775 44.625 104.4375 C36.15254628 104.8523234 28.52259087 101.41259181 22.125 95.9375 C17.1183855 91.12661734 13.67621866 85.93402046 10.19921875 79.9609375 C8.78719913 77.69750158 7.28455847 75.77751357 5.5625 73.75 C1.40618531 68.43123318 -2.375 59.24734779 -2.375 52.4375 C2.9753559 53.00771934 8.30287852 53.64484361 13.625 54.4375 C13.22667969 53.65246094 12.82835937 52.86742187 12.41796875 52.05859375 C9.65232205 46.57440383 6.96347324 41.11664929 4.625 35.4375 C4.068125 34.303125 3.51125 33.16875 2.9375 32 C1.38117541 27.7756904 1.39029243 24.89694386 1.625 20.4375 C0.305 20.4375 -1.015 20.4375 -2.375 20.4375 C-2.61347656 20.96214844 -2.85195313 21.48679688 -3.09765625 22.02734375 C-4.76888546 25.18070283 -6.79508814 28.06285704 -8.8125 31 C-13.41041156 37.74738652 -17.50112146 44.71634138 -21.35522461 51.91430664 C-23.96602127 56.61712288 -26.58800364 59.90057612 -30.89624023 63.15234375 C-34.05323532 65.89601589 -34.31033078 69.5457455 -34.59765625 73.5078125 C-35.31690591 78.64193015 -37.96134275 82.8961186 -40.4375 87.375 C-40.90994141 88.24962891 -41.38238281 89.12425781 -41.86914062 90.02539062 C-43.02832746 92.16812992 -44.19703317 94.30504529 -45.375 96.4375 C-46.035 96.4375 -46.695 96.4375 -47.375 96.4375 C-47.375 91.1575 -47.375 85.8775 -47.375 80.4375 C-48.591875 79.90125 -49.80875 79.365 -51.0625 78.8125 C-55.88435025 76.36749819 -59.22455648 73.46012754 -61.203125 68.26171875 C-61.6948021 66.70561303 -62.16997356 65.14420041 -62.62890625 63.578125 C-63.33929953 61.20790277 -63.33929953 61.20790277 -65.375 58.6875 C-68.45584411 53.68112832 -69.25453445 48.15866502 -70.375 42.4375 C-75.20161997 46.56348158 -77.59729332 52.08796025 -80.48828125 57.61914062 C-82.95288763 62.21436467 -85.52846552 66.06734078 -89.14501953 69.83862305 C-90.55691952 71.67398094 -90.9629036 73.17831774 -91.375 75.4375 C-90.42625 75.746875 -89.4775 76.05625 -88.5 76.375 C-85.375 77.4375 -85.375 77.4375 -83.375 78.4375 C-80.03344662 78.71449719 -76.69214126 78.88450704 -73.34375 79.05859375 C-70.375 79.4375 -70.375 79.4375 -68.375 81.4375 C-68.4375 83.375 -68.4375 83.375 -69.375 85.4375 C-72.28100655 87.68731153 -75.44743743 88.8579112 -78.8515625 90.140625 C-85.84058804 92.91514682 -92.24802372 96.66942916 -98.77929688 100.3671875 C-99.71708984 100.89054687 -100.65488281 101.41390625 -101.62109375 101.953125 C-102.46341553 102.43040039 -103.3057373 102.90767578 -104.17358398 103.39941406 C-106.375 104.4375 -106.375 104.4375 -109.375 104.4375 C-108.00067077 100.42903975 -106.0860562 97.67327676 -103.375 94.4375 C-101.77372926 91.23495853 -101.96798393 88.98435436 -102.375 85.4375 C-103.7392693 83.46035896 -105.25402755 81.80831211 -106.91796875 80.078125 C-108.70897987 78.06143688 -109.42035497 75.93426393 -110.375 73.4375 C-111.86 72.9425 -111.86 72.9425 -113.375 72.4375 C-113.58769531 73.13359375 -113.80039063 73.8296875 -114.01953125 74.546875 C-115.74461065 78.22571867 -118.26481054 80.81120696 -121.0625 83.6875 C-129.10746001 91.90041799 -129.10746001 91.90041799 -135.375 101.4375 C-136.365 101.4375 -137.355 101.4375 -138.375 101.4375 C-138.75089063 95.6563021 -137.66362116 91.72586216 -135.25 86.5 C-134.7713147 85.44341187 -134.7713147 85.44341187 -134.28295898 84.36547852 C-129.89740877 74.95447802 -123.30127309 65.59132351 -113.375 61.4375 C-107.03845919 60.68570702 -103.62931092 61.97486597 -98.2578125 65.34375 C-96.44967823 66.60493621 -96.44967823 66.60493621 -94.375 66.4375 C-92.82875665 63.6900504 -91.28851683 60.93928317 -89.75 58.1875 C-89.29069092 57.36862305 -88.83138184 56.54974609 -88.3581543 55.70605469 C-85.79074487 51.09693271 -83.40517136 46.4733194 -81.1875 41.6875 C-78.78800119 36.83458105 -76.2723912 32.99359453 -71.375 30.4375 C-65.48439048 29.36648009 -61.25242398 31.32753857 -56.375 34.4375 C-51.55877304 37.93832734 -47.69131741 42.17383917 -43.85546875 46.703125 C-42.33768408 48.52730537 -42.33768408 48.52730537 -40.375 50.4375 C-37.89520042 50.22296735 -36.72227196 49.79448247 -34.97802734 48.00146484 C-34.35081787 47.08421631 -34.35081787 47.08421631 -33.7109375 46.1484375 C-33.23358154 45.46168945 -32.75622559 44.77494141 -32.2644043 44.06738281 C-31.76465088 43.32327148 -31.26489746 42.57916016 -30.75 41.8125 C-30.22510986 41.04776367 -29.70021973 40.28302734 -29.15942383 39.49511719 C-28.07802625 37.91475124 -27.00196062 36.33072411 -25.93115234 34.74316406 C-24.50461437 32.62954238 -23.06197214 30.52815499 -21.61328125 28.4296875 C-16.89544715 21.53869884 -12.68881923 14.6221389 -8.9453125 7.14453125 C-6.52456508 2.97145174 -4.89231192 0.63418858 0 0 Z " fill="#F7FDFC" transform="translate(306.375,178.5625)"/>
<path d="M0 0 C36.63 0 73.26 0 111 0 C111 9.9 111 19.8 111 30 C98.13 30 85.26 30 72 30 C72 64.32 72 98.64 72 134 C61.11 134 50.22 134 39 134 C39 99.68 39 65.36 39 30 C26.13 30 13.26 30 0 30 C0 20.1 0 10.2 0 0 Z " fill="#16C9C1" transform="translate(534,198)"/>
<path d="M0 0 C10.56 0 21.12 0 32 0 C33.32 3.3 34.64 6.6 36 10 C36.66 11.464375 37.32 12.92875 38 14.4375 C40.77556733 20.61502728 42.95037778 27.00305234 45.1875 33.390625 C47.49517754 39.93866002 49.94614432 46.3698392 52.6640625 52.7578125 C55.27960578 59.10547602 57.62192144 65.56039206 60 72 C65.75051697 59.96896449 70.30657975 47.4602367 75.0390625 35.00585938 C75.37679687 34.11705078 75.71453125 33.22824219 76.0625 32.3125 C76.39765625 31.43013672 76.7328125 30.54777344 77.078125 29.63867188 C80.86920271 19.67968842 84.80184335 9.79569885 89 0 C99.56 0 110.12 0 121 0 C119.16003872 6.13320428 117.33341409 12.10237529 115.0625 18.0625 C114.80090088 18.75512939 114.53930176 19.44775879 114.26977539 20.16137695 C112.64625944 24.42029553 110.9035449 28.59573336 108.9921875 32.734375 C107.30458364 36.58795862 105.88884796 40.54715 104.44140625 44.49609375 C103.329254 47.19961831 102.14882446 49.68557012 100.8046875 52.26953125 C96.8661996 60.03189304 93.78838985 68.1736368 90.5625 76.25 C89.58928815 78.67852515 88.61480786 81.10652933 87.63865662 83.53387451 C87.03670548 85.03152359 86.43646095 86.52986061 85.83851624 88.02911377 C83.01198927 95.07684518 79.99452653 102.01277144 77 109 C66.11 109 55.22 109 44 109 C37.27852761 94.43680982 37.27852761 94.43680982 34.9375 88.4375 C33.23650477 84.09379913 31.49458182 79.77508354 29.69140625 75.47265625 C26.44458619 67.70662188 23.34123576 59.88424654 20.22949219 52.06347656 C17.23704828 44.54624453 14.2124159 37.04554984 11.078125 29.5859375 C10.72234375 28.73257813 10.3665625 27.87921875 10 27 C9.62359375 26.12601563 9.2471875 25.25203125 8.859375 24.3515625 C8 22 8 22 8 19 C7.34 19 6.68 19 6 19 C5.18309823 16.77236012 4.37138128 14.5430514 3.5625 12.3125 C3.21735352 11.37374023 3.21735352 11.37374023 2.86523438 10.41601562 C1.60013222 6.91406618 0.73564047 3.67820235 0 0 Z " fill="#17C9C1" transform="translate(833,223)"/>
<path d="M0 0 C11.22 0 22.44 0 34 0 C34 9.9 34 19.8 34 30 C43.9 30 53.8 30 64 30 C64 40.23 64 50.46 64 61 C54.1 61 44.2 61 34 61 C34.0825 65.434375 34.165 69.86875 34.25 74.4375 C34.27368652 76.50729126 34.27368652 76.50729126 34.29785156 78.61889648 C34.52764532 86.98399403 35.280419 94.17988979 41.3125 100.375 C48.23843146 104.56277251 54.20683179 106.15311021 62.1875 106.0625 C62.93708984 106.05798828 63.68667969 106.05347656 64.45898438 106.04882812 C66.30602383 106.03706354 68.15302213 106.01912865 70 106 C70.02465622 110.25414623 70.04283899 114.50825498 70.05493164 118.76245117 C70.05997101 120.21070073 70.06680253 121.65894517 70.07543945 123.10717773 C70.08752247 125.18474588 70.09323211 127.26224697 70.09765625 129.33984375 C70.10289307 130.59144287 70.10812988 131.84304199 70.11352539 133.13256836 C70 136 70 136 69 137 C50.60970878 137.98384274 33.17235433 135.77548827 18.5 123.5625 C6.51104783 112.0582076 0.07528788 97.53536247 -0.31499004 80.99414349 C-0.36022831 76.48890716 -0.3312867 71.98564801 -0.29296875 67.48046875 C-0.28736157 65.52607044 -0.28309678 63.57166786 -0.28010559 61.61726379 C-0.26874512 56.51602178 -0.23935539 51.41504303 -0.20599365 46.31390381 C-0.17510131 41.09146687 -0.16155961 35.86898668 -0.14648438 30.64648438 C-0.11447579 20.43085632 -0.0617815 10.21549141 0 0 Z " fill="#19CAC2" transform="translate(1251,196)"/>
<path d="M0 0 C10.89 0 21.78 0 33 0 C33 50.49 33 100.98 33 153 C22.11 153 11.22 153 0 153 C0 102.51 0 52.02 0 0 Z " fill="#18CAC2" transform="translate(1058,179)"/>
<path d="M0 0 C1.40333085 0.61567823 2.80832929 1.22756737 4.21484375 1.8359375 C16.53352498 7.30065366 28.00123798 13.91302617 38 23 C39.45212891 24.29164062 39.45212891 24.29164062 40.93359375 25.609375 C47.73231538 31.71287543 54.01287499 37.8041139 59.5625 45.0625 C62.53899717 48.94791378 65.51093975 52.55576708 69 56 C72.85588238 61.07016579 74.73723762 65.79141832 76 72 C76.33 72.99 76.66 73.98 77 75 C77.66 75 78.32 75 79 75 C80.53754337 77.56257228 81.04717405 79.36391406 81.4375 82.375 C81.8000617 85.99201642 81.8000617 85.99201642 83.5 88.875 C85.42658736 92.88872368 85.71647584 96.60048724 86 101 C86.66 101 87.32 101 88 101 C94.24500449 132.30357598 92.90987834 163.3896833 80 193 C79.34 193 78.68 193 78 193 C77.9175 193.825 77.835 194.65 77.75 195.5 C76.2227049 202.62737716 72.10688098 208.65442838 68.0625 214.625 C67.64548828 215.2540625 67.22847656 215.883125 66.79882812 216.53125 C63.21547755 221.87027621 59.50839487 227.02696186 54.4375 231.0625 C52.34529297 232.79552986 50.76772565 234.29221612 49.0625 236.4375 C46.09835921 240.12022037 42.64118108 242.99966679 39 246 C38.06027344 246.77730469 37.12054688 247.55460937 36.15234375 248.35546875 C28.52779709 254.51227209 20.49859671 259.44728301 11.84130859 264.02001953 C10.22039673 264.88270055 8.61827941 265.7805001 7.01953125 266.68359375 C-2.12803453 271.65088969 -11.97513818 274.39241179 -22 277 C-22.68094727 277.18224121 -23.36189453 277.36448242 -24.06347656 277.55224609 C-43.88936838 282.63775433 -68.22284309 281.90049139 -88 277 C-88.680625 276.83902832 -89.36125 276.67805664 -90.0625 276.51220703 C-111.95930442 271.19630838 -131.96430137 260.6859471 -149 246 C-149.96679688 245.16726563 -150.93359375 244.33453125 -151.9296875 243.4765625 C-159.05300404 237.20909099 -165.17013255 230.50723282 -171 223 C-171.59039062 222.26007813 -172.18078125 221.52015625 -172.7890625 220.7578125 C-191.40029593 195.97223622 -200.18861791 166.07613513 -200.18530273 135.45385742 C-200.1874852 133.20276857 -200.20568513 130.95217423 -200.22460938 128.70117188 C-200.25628373 120.26778752 -199.76752074 112.28882105 -198 104 C-197.34 104 -196.68 104 -196 104 C-196.04769531 102.83855469 -196.09539062 101.67710937 -196.14453125 100.48046875 C-196.13404952 96.13817516 -195.18195622 92.36993876 -193.6875 88.3125 C-193.29643066 87.23488403 -193.29643066 87.23488403 -192.89746094 86.13549805 C-185.4763717 66.58954835 -174.44000132 49.0731211 -160 34 C-159.20464844 33.12988281 -158.40929687 32.25976562 -157.58984375 31.36328125 C-149.93363713 23.26825735 -141.2743403 17.10676089 -132 11 C-131.01515625 10.34128906 -130.0303125 9.68257812 -129.015625 9.00390625 C-92.49905505 -13.84533477 -39.2573931 -18.91889981 0 0 Z M-94.6875 -0.4375 C-95.82654785 -0.08179932 -96.9655957 0.27390137 -98.13916016 0.64038086 C-107.30587082 3.59476321 -115.63886085 7.25786137 -124 12 C-125.07121094 12.57492188 -126.14242187 13.14984375 -127.24609375 13.7421875 C-134.5096911 17.75798527 -140.76866742 22.5366748 -147 28 C-147.49532227 28.42829102 -147.99064453 28.85658203 -148.50097656 29.29785156 C-160.12881325 39.39007553 -169.11090399 50.82077758 -177 64 C-177.34949707 64.5770166 -177.69899414 65.1540332 -178.05908203 65.74853516 C-184.50579543 76.5476136 -188.36277763 88.00391138 -192 100 C-192.35320312 101.11375 -192.70640625 102.2275 -193.0703125 103.375 C-195.64409323 113.41058199 -196.29659354 123.15575239 -196.20581055 133.46728516 C-196.18723107 135.6566908 -196.18530376 137.84567896 -196.18554688 140.03515625 C-196.55835841 146.71947777 -196.55835841 146.71947777 -195 153 C-194.72771117 154.68404722 -194.48246288 156.37249489 -194.25 158.0625 C-193.03692711 165.60346802 -190.87819632 172.76660245 -188.59960938 180.04003906 C-188.08824029 181.71156635 -187.62492882 183.39767091 -187.171875 185.0859375 C-178.61114934 215.04847731 -152.39846398 241.99832241 -126 257 C-125.34193359 257.37688965 -124.68386719 257.7537793 -124.00585938 258.14208984 C-104.93354774 268.96075584 -84.03347311 275.28346429 -62 276 C-60.90429688 276.0515625 -59.80859375 276.103125 -58.6796875 276.15625 C-24.26328141 277.04825189 11.41722659 264.86066498 37.140625 241.8125 C39.65382676 239.36265627 41.88643064 236.71547944 44.1484375 234.03515625 C46.15459001 231.83008145 48.29686023 229.93602329 50.5625 228 C56.34467269 222.96645614 60.2247225 217.97955182 63.16064453 210.88989258 C64.01460283 208.96712027 64.97783269 207.16550002 66.015625 205.3359375 C84.1604536 173.32518584 89.05989309 135.27927491 80.25 99.5625 C73.46534916 75.33878367 61.0532885 54.90685105 44.1796875 36.3984375 C41.54621278 33.50067141 38.97474907 30.55242919 36.41015625 27.59375 C34.24689142 24.91469302 34.24689142 24.91469302 31.1875 23.6875 C29 23 29 23 26.7265625 20.69921875 C15.16945018 9.2580087 -2.16799273 3.64266044 -17.375 -0.875 C-18.37313721 -1.17349854 -19.37127441 -1.47199707 -20.3996582 -1.77954102 C-31.22564743 -4.86792291 -41.61355228 -5.16416678 -52.82202148 -5.13037109 C-54.93024921 -5.12501841 -57.03826314 -5.13034283 -59.14648438 -5.13671875 C-71.63779358 -5.14745619 -82.70936819 -4.21524586 -94.6875 -0.4375 Z " fill="#E3FAF9" transform="translate(341,99)"/>
<path d="M0 0 C0.92143799 0.00249756 1.84287598 0.00499512 2.79223633 0.00756836 C4.52509888 0.02122437 4.52509888 0.02122437 6.29296875 0.03515625 C11.83078125 0.06609375 11.83078125 0.06609375 17.48046875 0.09765625 C17.48046875 10.65765625 17.48046875 21.21765625 17.48046875 32.09765625 C12.20046875 32.09765625 6.92046875 32.09765625 1.48046875 32.09765625 C-6.06897976 34.15659675 -11.39895945 35.91811187 -15.57452393 42.84873962 C-19.1003413 49.82480334 -19.12142949 56.39758945 -19.12890625 64.1015625 C-19.1454425 65.42059067 -19.16197876 66.73961884 -19.17901611 68.09861755 C-19.22238841 71.57554053 -19.24262081 75.05221269 -19.25775146 78.52935791 C-19.27743249 82.08938084 -19.3191772 85.64914374 -19.359375 89.20898438 C-19.43640443 96.1720398 -19.47705675 103.13396245 -19.51953125 110.09765625 C-30.40953125 110.09765625 -41.29953125 110.09765625 -52.51953125 110.09765625 C-52.60391631 102.29672595 -52.68399102 94.49749327 -52.72653198 86.69650269 C-52.74746746 83.06211383 -52.77533674 79.42811126 -52.82128906 75.79394531 C-53.30457577 36.52102905 -53.30457577 36.52102905 -42.51953125 22.09765625 C-41.99488281 21.39253906 -41.47023438 20.68742187 -40.9296875 19.9609375 C-31.3785367 8.1624571 -15.29445772 -0.0854439 0 0 Z " fill="#18C9C2" transform="translate(704.51953125,221.90234375)"/>
<path d="M0 0 C4.4240625 0.0309375 4.4240625 0.0309375 8.9375 0.0625 C8.9375 10.6225 8.9375 21.1825 8.9375 32.0625 C4.3175 32.0625 -0.3025 32.0625 -5.0625 32.0625 C-12.87352072 33.23415311 -18.97211734 35.69952168 -24.0625 42.0625 C-26.73610748 48.87303009 -26.41221793 55.85854017 -26.4765625 63.08984375 C-26.49529754 64.44748582 -26.51487266 65.80511654 -26.5352478 67.16273499 C-26.58632867 70.71523304 -26.62608202 74.26776875 -26.66339111 77.82043457 C-26.70358262 81.45394993 -26.75450175 85.08731433 -26.8046875 88.72070312 C-26.90216564 95.83457646 -26.98187422 102.94833593 -27.0625 110.0625 C-37.9525 110.0625 -48.8425 110.0625 -60.0625 110.0625 C-60.10458415 102.0454703 -60.14463846 94.02884697 -60.16600037 86.01180267 C-60.17650705 82.27743238 -60.19051826 78.54315473 -60.21337891 74.80883789 C-60.23530719 71.20375479 -60.24711017 67.59876082 -60.25225449 63.9936161 C-60.25591475 62.62668774 -60.26306087 61.25976357 -60.27396011 59.89287376 C-60.40220884 43.12318063 -57.7596614 28.83844206 -46.125 16.1875 C-39.65998431 10.11702063 -32.14080276 6.55842495 -24.0625 3.0625 C-23.26585937 2.68222656 -22.46921875 2.30195313 -21.6484375 1.91015625 C-14.70951162 -0.36438592 -7.22526977 -0.07228468 0 0 Z " fill="#17C9C1" transform="translate(1502.0625,221.9375)"/>
<path d="M0 0 C6.96478258 7.37447567 7.67680074 15.64453372 7.47265625 25.4375 C6.8678183 32.07032963 4.32061728 36.73149783 0 41.6875 C-8.08709243 46.08265893 -17.48278544 47.77606924 -26.4765625 45.62890625 C-32.87726586 43.4534406 -37.27450127 39.99852355 -40.875 34.25 C-44.22724735 26.0319488 -44.10005399 16.43926501 -40.84765625 8.1796875 C-37.87478018 2.2816924 -33.71354625 -0.88380457 -27.875 -3.75 C-18.64336486 -6.62417919 -8.16884299 -4.97233921 0 0 Z " fill="#FAFDFD" transform="translate(796.875,256.75)"/>
<path d="M0 0 C5.53990432 4.28634933 7.69597863 8.72950968 8.703125 15.59375 C9.68308926 25.0956819 7.84762528 31.3529162 3.015625 39.40625 C-2.86418396 44.96823145 -10.95488416 46.93454624 -18.86328125 46.8046875 C-26.35036047 46.15572718 -32.29730285 43.20468288 -37.296875 37.59375 C-42.11295113 29.56695645 -42.59714737 20.19749551 -40.80078125 11.07421875 C-39.26936467 6.54918559 -36.88840472 3.65969001 -33.296875 0.59375 C-32.6575 0.036875 -32.018125 -0.52 -31.359375 -1.09375 C-22.11285834 -6.97789696 -9.09898136 -5.57080491 0 0 Z " fill="#FBFEFE" transform="translate(1393.296875,256.40625)"/>
<path d="M0 0 C-0.4577719 1.68765239 -0.9162489 3.37511352 -1.375 5.0625 C-1.64957031 6.07570312 -1.92414063 7.08890625 -2.20703125 8.1328125 C-2.79098007 10.24423337 -3.41557742 12.34451517 -4.0625 14.4375 C-6.69028262 24.42307396 -7.29623844 34.19608552 -7.20581055 44.46728516 C-7.18723107 46.6566908 -7.18530376 48.84567896 -7.18554688 51.03515625 C-7.55835841 57.71947777 -7.55835841 57.71947777 -6 64 C-5.72771117 65.68404722 -5.48246288 67.37249489 -5.25 69.0625 C-4.03692711 76.60346802 -1.87819632 83.76660245 0.40039062 91.04003906 C0.91175971 92.71156635 1.37507118 94.39767091 1.828125 96.0859375 C10.31933619 125.80517665 35.85875704 152.0464104 62 167 C62.6595166 167.37833984 63.3190332 167.75667969 63.99853516 168.14648438 C83.06922945 178.96229881 103.96963963 185.28356552 126 186 C127.09570312 186.0515625 128.19140625 186.103125 129.3203125 186.15625 C163.32063567 187.03746788 198.72304844 175.12216955 224.36328125 152.58984375 C226.78611349 150.2364005 228.92147585 147.65940092 231.10546875 145.0859375 C233.82172992 142.09524994 236.8261802 139.49045965 239.88671875 136.859375 C242.05181346 135.00742736 242.05181346 135.00742736 244.08203125 132.828125 C246 131 246 131 249 130 C248.51604968 134.59342675 246.83866305 136.69927275 243.6875 140 C241.33654595 142.48695966 239.05262497 144.93382311 236.921875 147.61328125 C234.00354608 151.23746615 230.58231107 154.04817568 227 157 C226.06027344 157.77730469 225.12054688 158.55460938 224.15234375 159.35546875 C216.52779709 165.51227209 208.49859671 170.44728301 199.84130859 175.02001953 C198.22039673 175.88270055 196.61827941 176.7805001 195.01953125 177.68359375 C185.87196547 182.65088969 176.02486182 185.39241179 166 188 C165.31905273 188.18224121 164.63810547 188.36448242 163.93652344 188.55224609 C144.11063162 193.63775433 119.77715691 192.90049139 100 188 C99.319375 187.83902832 98.63875 187.67805664 97.9375 187.51220703 C76.04069558 182.19630838 56.03569863 171.6859471 39 157 C37.54980469 155.75089844 37.54980469 155.75089844 36.0703125 154.4765625 C28.94699596 148.20909099 22.82986745 141.50723282 17 134 C16.40960938 133.26007813 15.81921875 132.52015625 15.2109375 131.7578125 C-3.40029593 106.97223622 -12.18861791 77.07613513 -12.18530273 46.45385742 C-12.1874852 44.20276857 -12.20568513 41.95217423 -12.22460938 39.70117188 C-12.25628373 31.26778752 -11.76752074 23.28882105 -10 15 C-9.34 15 -8.68 15 -8 15 C-8.04125 13.783125 -8.0825 12.56625 -8.125 11.3125 C-8.1187378 7.77435852 -7.75830059 5.14643264 -6 2 C-3 0 -3 0 0 0 Z " fill="#E9F8F7" transform="translate(153,188)"/>
<path d="M0 0 C2.3301259 2.3301259 2.65885686 3.72071322 3.5 6.875 C3.7371875 7.73867187 3.974375 8.60234375 4.21875 9.4921875 C6.51641624 19.80870892 7.31340135 29.6153246 7.25 40.1875 C7.25773437 41.48880859 7.26546875 42.79011719 7.2734375 44.13085938 C7.25941924 51.03835837 6.90406931 57.35131953 5 64 C4.79117187 64.85851562 4.58234375 65.71703125 4.3671875 66.6015625 C4.20476562 67.26929688 4.04234375 67.93703125 3.875 68.625 C2.99990765 72.51505894 2.83073864 76.022358 3 80 C3.99 80 4.98 80 6 80 C6.103125 78.845 6.20625 77.69 6.3125 76.5 C6.61581582 73.57835496 7.04287007 70.82281891 7.734375 67.96484375 C10.03165534 58.17972986 10.30556854 48.56883508 10.3125 38.5625 C10.31581329 37.86309296 10.31912659 37.16368591 10.32254028 36.44308472 C10.34421602 28.69349678 9.95138672 21.52787921 8 14 C7.84558846 11.30564708 7.90177477 8.70119391 8 6 C19.73208807 26.76432323 12.5453798 60.92768694 6.6953125 82.61328125 C5.15993483 87.88359449 3.19368299 92.96853135 1 98 C0.34 98 -0.32 98 -1 98 C-1.0825 98.825 -1.165 99.65 -1.25 100.5 C-2.7772951 107.62737716 -6.89311902 113.65442838 -10.9375 119.625 C-11.35451172 120.2540625 -11.77152344 120.883125 -12.20117188 121.53125 C-14.91315007 125.57197177 -17.82686102 129.31030352 -21 133 C-21 129.79604584 -20.25664978 127.90600261 -19 125 C-19.99 125.495 -19.99 125.495 -21 126 C-20.30965292 122.60380976 -19.01524754 119.82811237 -17.4375 116.75 C-16.89996094 115.68523437 -16.36242187 114.62046875 -15.80859375 113.5234375 C-14.56584005 111.1023493 -13.30962538 108.69313216 -12.03515625 106.2890625 C-0.9972864 85.21652361 4.20417814 63.52135676 4.1875 39.75 C4.18669434 38.55721436 4.18588867 37.36442871 4.18505859 36.13549805 C4.10756754 25.00489589 2.79307413 14.77328592 0 4 C0 2.68 0 1.36 0 0 Z " fill="#7EFAF9" transform="translate(420,194)"/>
<path d="M0 0 C0.25 2.8125 0.25 2.8125 0 6 C-2.92527408 9.02974815 -6.02712265 9.86653075 -10.1472168 10.14526367 C-12.66077924 10.17005541 -15.17380622 10.18565847 -17.6875 10.1875 C-18.97817383 10.20586914 -18.97817383 10.20586914 -20.29492188 10.22460938 C-26.15873993 10.23786593 -31.31831915 9.45639843 -37 8 C-36.02243905 3.38581733 -34.03035159 1.99140572 -30.23046875 -0.671875 C-20.8893465 -6.23401434 -9.01802626 -5.54955462 0 0 Z " fill="#F8FDFD" transform="translate(1018,257)"/>
<path d="M0 0 C4.12100891 3.77275464 6.82126027 7.61541209 9.5 12.5 C10.08201172 13.54643677 10.08201172 13.54643677 10.67578125 14.61401367 C14.58629307 21.80481059 17.41308099 29.23924298 20 37 C20.66 37.33 21.32 37.66 22 38 C22.54286452 40.23111352 22.98253939 42.48758003 23.375 44.75 C24.49659911 50.92913926 26.06361405 56.76410082 28.1328125 62.70703125 C30.56363485 71.93758639 30.15636417 81.57135183 30.13037109 91.04882812 C30.1250269 93.36334838 30.13033591 95.67767325 30.13671875 97.9921875 C30.14909027 120.26510024 30.14909027 120.26510024 26.75 130.4296875 C25.90715048 133.31820303 25.48054413 136.14643558 25.0625 139.125 C24.3733535 143.54562268 23.35746565 146.85035977 21.171875 150.72265625 C19.66907367 153.64310016 18.62881352 156.66568306 17.5 159.75 C14.93106487 166.49814336 11.51820666 172.625214 7.8125 178.8125 C7.28914063 179.69067383 6.76578125 180.56884766 6.2265625 181.47363281 C2.3939259 187.73738273 2.3939259 187.73738273 -1 190 C0.52901537 185.70419492 2.7719724 182.02404509 5.1875 178.1875 C27.90625882 141.11136575 32.85274781 96.3282073 23.23071289 54.44555664 C18.94520915 36.99343638 11.95599765 19.5221999 1.734375 4.65234375 C0 2 0 2 0 0 Z " fill="#59FCFC" transform="translate(421,140)"/>
<path d="M0 0 C0.99 0 1.98 0 3 0 C3.04998673 4.64069099 3.0859928 9.28122019 3.10986328 13.92211914 C3.11982989 15.49604019 3.1334081 17.06994318 3.15087891 18.64379883 C3.24837713 27.66238499 3.09288783 36.16921791 1 45 C0.81050781 45.87462891 0.62101562 46.74925781 0.42578125 47.65039062 C-0.0344197 49.77025244 -0.51475764 51.8857297 -1 54 C-2.98 54.495 -2.98 54.495 -5 55 C-5.14670665 49.32309063 -4.68352456 44.18319617 -3.5625 38.625 C-3.42779297 37.91472656 -3.29308594 37.20445312 -3.15429688 36.47265625 C-2.14710307 31.29420613 -2.14710307 31.29420613 -1 29 C-0.84530633 26.82325217 -0.74997894 24.6421652 -0.68359375 22.4609375 C-0.64169922 21.15898437 -0.59980469 19.85703125 -0.55664062 18.515625 C-0.51682701 17.13541955 -0.47711478 15.75521117 -0.4375 14.375 C-0.39430593 12.98696585 -0.35069135 11.59894472 -0.30664062 10.2109375 C-0.20028 6.80739744 -0.09825286 3.40378222 0 0 Z " fill="#F3FEFE" transform="translate(427,220)"/>
<path d="M0 0 C2.3301259 2.3301259 2.65885686 3.72071322 3.5 6.875 C3.7371875 7.73867187 3.974375 8.60234375 4.21875 9.4921875 C6.51641624 19.80870892 7.31340135 29.6153246 7.25 40.1875 C7.25773437 41.48880859 7.26546875 42.79011719 7.2734375 44.13085938 C7.25938167 51.05686745 6.8792362 57.33498634 5 64 C4.64005436 65.45885576 4.28329191 66.91850052 3.9296875 68.37890625 C3.57935538 69.7737471 3.22780127 71.16828163 2.875 72.5625 C2.69324219 73.28501953 2.51148438 74.00753906 2.32421875 74.75195312 C1.8839153 76.50157998 1.4421211 78.25083157 1 80 C-0.35295726 76.26583796 0.38231678 73.65448199 1.375 69.875 C3.98326535 59.90508852 4.19469783 50.00906993 4.1875 39.75 C4.18669434 38.55721436 4.18588867 37.36442871 4.18505859 36.13549805 C4.10756754 25.00489589 2.79307413 14.77328592 0 4 C0 2.68 0 1.36 0 0 Z " fill="#55FEFD" transform="translate(420,194)"/>
<path d="M0 0 C0.33 0.66 0.66 1.32 1 2 C-1.22187734 8.39631356 -5.27740633 14.14155048 -9 19.75 C-9.41483643 20.37543701 -9.82967285 21.00087402 -10.25708008 21.64526367 C-12.95673856 25.63986735 -15.85857395 29.34248253 -19 33 C-19 29.79604584 -18.25664978 27.90600261 -17 25 C-17.66 25.33 -18.32 25.66 -19 26 C-18.27360299 22.29627204 -16.73984491 19.17949309 -15.0625 15.8125 C-14.53785156 14.74644531 -14.01320313 13.68039062 -13.47265625 12.58203125 C-12 10 -12 10 -10 9 C-10.33 10.98 -10.66 12.96 -11 15 C-6.79940376 13.59980125 -5.80948475 10.63174123 -3.8125 6.9375 C-3.44447266 6.27427734 -3.07644531 5.61105469 -2.69726562 4.92773438 C-1.78987938 3.28972543 -0.89384427 1.64543779 0 0 Z " fill="#8FF7F6" transform="translate(418,294)"/>
<path d="M0 0 C0.33 0 0.66 0 1 0 C1.33 1.98 1.66 3.96 2 6 C2.33 4.35 2.66 2.7 3 1 C5.50612353 3.50612353 5.45439152 4.83871999 5.9375 8.3125 C6.94557167 14.96577304 8.41832311 21.46240217 10 28 C9.01 27.34 8.02 26.68 7 26 C6.34 27.32 5.68 28.64 5 30 C4.14928676 26.69172102 3.32272051 23.37784131 2.5 20.0625 C2.26152344 19.13630859 2.02304688 18.21011719 1.77734375 17.25585938 C0.32304975 11.33480523 -0.25008789 6.09589228 0 0 Z " fill="#DEEDEB" transform="translate(142,249)"/>
<path d="M0 0 C-0.4577719 1.68765239 -0.9162489 3.37511352 -1.375 5.0625 C-1.64957031 6.07570312 -1.92414063 7.08890625 -2.20703125 8.1328125 C-2.79098007 10.24423337 -3.41557742 12.34451517 -4.0625 14.4375 C-5.41150768 19.56372917 -6.19195186 24.76487961 -7 30 C-7.33 30 -7.66 30 -8 30 C-8 26.37 -8 22.74 -8 19 C-8.66 20.32 -9.32 21.64 -10 23 C-10 20.36 -10 17.72 -10 15 C-9.34 15 -8.68 15 -8 15 C-8.04125 13.783125 -8.0825 12.56625 -8.125 11.3125 C-8.1187378 7.77435852 -7.75830059 5.14643264 -6 2 C-3 0 -3 0 0 0 Z " fill="#E4F0EF" transform="translate(153,188)"/>
<path d="M0 0 C1.1303501 3.39105031 1.07901009 3.8324986 -0.5625 7.3125 C-1.13677734 8.36630859 -1.13677734 8.36630859 -1.72265625 9.44140625 C-3.2350037 12.47072606 -4.33650848 15.57025019 -5.5 18.75 C-8.06897585 25.49814595 -11.48178533 31.62520063 -15.1875 37.8125 C-15.71085937 38.69067383 -16.23421875 39.56884766 -16.7734375 40.47363281 C-20.6060741 46.73738273 -20.6060741 46.73738273 -24 49 C-22.47103036 44.70432338 -20.22854847 41.02365312 -17.8125 37.1875 C-11.01987431 26.13146159 -6.18309821 14.2634929 -2 2 C-1.34 2 -0.68 2 0 2 C0 1.34 0 0.68 0 0 Z " fill="#62FAF9" transform="translate(444,281)"/>
<path d="M0 0 C-0.16887446 7.43047616 -4.13184348 12.84932815 -8 19 C-8.99 18.67 -9.98 18.34 -11 18 C-10.40981556 13.63425206 -8.7973902 10.52282919 -6.5625 6.75 C-5.94503906 5.69296875 -5.32757813 4.6359375 -4.69140625 3.546875 C-2.33588957 0 -2.33588957 0 0 0 Z " fill="#EFFEFE" transform="translate(417,292)"/>
<path d="M0 0 C1.74627478 2.61941217 2.38722388 4.03824877 3 7 C2.67 7 2.34 7 2 7 C1.67 15.91 1.34 24.82 1 34 C0.01 34 -0.98 34 -2 34 C-1.88148693 29.80059793 -1.75722118 25.6014169 -1.62768555 21.40234375 C-1.58444682 19.97465612 -1.54276415 18.54692046 -1.50268555 17.11914062 C-1.44471398 15.06365504 -1.38109825 13.00840872 -1.31640625 10.953125 C-1.27974854 9.71723633 -1.24309082 8.48134766 -1.20532227 7.20800781 C-1.04020181 4.62812342 -0.7535613 2.45644894 0 0 Z " fill="#C4F1EF" transform="translate(1322,298)"/>
<path d="M0 0 C2.0625 0.25 2.0625 0.25 4 1 C4.33 1.66 4.66 2.32 5 3 C3.02 3 1.04 3 -1 3 C-1.10699219 3.81339844 -1.21398437 4.62679687 -1.32421875 5.46484375 C-2.12632293 9.66082227 -3.39669124 13.5399168 -4.8125 17.5625 C-5.1847168 18.6752832 -5.1847168 18.6752832 -5.56445312 19.81054688 C-7.0852519 24.15623905 -8.61038374 27.73951198 -12 31 C-13.32 31 -14.64 31 -16 31 C-15.67 32.32 -15.34 33.64 -15 35 C-15.99 34.34 -16.98 33.68 -18 33 C-18 32.01 -18 31.02 -18 30 C-17.0925 29.855625 -16.185 29.71125 -15.25 29.5625 C-11.16740241 27.5997127 -10.66347879 26.13801288 -9.0703125 22.0546875 C-8.71710938 21.04664063 -8.36390625 20.03859375 -8 19 C-7.76249023 18.32227539 -7.52498047 17.64455078 -7.28027344 16.94628906 C-7.02020508 16.2034668 -6.76013672 15.46064453 -6.4921875 14.6953125 C-6.22535156 13.93420166 -5.95851563 13.17309082 -5.68359375 12.38891602 C-5.14895476 10.85069893 -4.6227531 9.3095206 -4.10546875 7.76538086 C-2.21519134 2.21519134 -2.21519134 2.21519134 0 0 Z " fill="#53E4E0" transform="translate(359,237)"/>
<path d="M0 0 C0.66 0.33 1.32 0.66 2 1 C1.35973877 1.6297876 0.71947754 2.2595752 0.05981445 2.90844727 C-2.33918995 5.27313363 -4.73344703 7.64243373 -7.12475586 10.01489258 C-8.15580149 11.03595152 -9.18864382 12.05519981 -10.22338867 13.07250977 C-15.63948305 18.39968709 -20.86476296 23.57641829 -25 30 C-25 21.58868426 -13.65152458 12.82688924 -8 7 C-5.40347658 4.57467592 -2.75568524 2.24244874 0 0 Z " fill="#3EA296" transform="translate(197,124)"/>
<path d="M0 0 C0.33 0 0.66 0 1 0 C1.08333357 4.8333472 0.95261487 9.23692563 0 14 C0.66 14 1.32 14 2 14 C1.67 16.97 1.34 19.94 1 23 C-0.32 23.33 -1.64 23.66 -3 24 C-3.15490223 18.26861756 -2.65244885 13.10650794 -1.5 7.5 C-1.35691406 6.77296875 -1.21382813 6.0459375 -1.06640625 5.296875 C-0.71766302 3.52990929 -0.35980277 1.76474691 0 0 Z " fill="#DBFEFE" transform="translate(425,251)"/>
<path d="M0 0 C0.66 0.99 1.32 1.98 2 3 C2.66 3 3.32 3 4 3 C3.7159949 5.06356895 3.42246648 7.1258285 3.125 9.1875 C2.96257812 10.33605469 2.80015625 11.48460937 2.6328125 12.66796875 C2.05939755 15.68724625 1.25240957 18.20575848 0 21 C-1.20220203 17.46905698 -0.79532349 14.87101018 -0.0625 11.25 C0.13214844 10.26515625 0.32679688 9.2803125 0.52734375 8.265625 C0.68332031 7.51796875 0.83929688 6.7703125 1 6 C-2.11785113 6.64644661 -2.11785113 6.64644661 -3 9 C-2.67 7.02 -2.34 5.04 -2 3 C-1.34 3 -0.68 3 0 3 C0 2.01 0 1.02 0 0 Z " fill="#8CFAFA" transform="translate(421,271)"/>
<path d="M0 0 C0.66 0.33 1.32 0.66 2 1 C-2.62 5.62 -7.24 10.24 -12 15 C-12 10.09687565 -8.29800369 7.38658643 -5 4 C-3.37458956 2.61667196 -1.72614587 1.25537882 0 0 Z " fill="#38D1CA" transform="translate(674,232)"/>
<path d="M0 0 C0.66 0.33 1.32 0.66 2 1 C-1.96 4.96 -5.92 8.92 -10 13 C-10.66 12.67 -11.32 12.34 -12 12 C-8.27653164 7.57905197 -4.70478962 3.42166518 0 0 Z " fill="#3AD1CB" transform="translate(1340,232)"/>
<path d="M0 0 C0.66 0.33 1.32 0.66 2 1 C-1.63 4.63 -5.26 8.26 -9 12 C-9.66 11.67 -10.32 11.34 -11 11 C-9.92173635 9.72486237 -8.83714481 8.45507431 -7.75 7.1875 C-7.14671875 6.47980469 -6.5434375 5.77210938 -5.921875 5.04296875 C-4.07629602 3.08110329 -2.20054668 1.54330375 0 0 Z " fill="#3CD2CB" transform="translate(1155,206)"/>
<path d="M0 0 C0.33 0 0.66 0 1 0 C1 2.31 1 4.62 1 7 C0.01 7.495 0.01 7.495 -1 8 C-1.65772428 11.02934491 -1.65772428 11.02934491 -2 14 C-2.33 14 -2.66 14 -3 14 C-3.29341888 8.32723489 -3.00559652 5.00932754 0 0 Z " fill="#F1F8F7" transform="translate(145,206)"/>
<path d="M0 0 C0.66 0.33 1.32 0.66 2 1 C0.88200014 2.33920838 -0.24461897 3.67122556 -1.375 5 C-2.00148438 5.7425 -2.62796875 6.485 -3.2734375 7.25 C-4.12808594 8.11625 -4.12808594 8.11625 -5 9 C-5.66 9 -6.32 9 -7 9 C-6.82374165 6.62051228 -6.30280227 5.29774151 -4.59765625 3.62109375 C-3.09350908 2.37884514 -1.54870149 1.18623944 0 0 Z " fill="#D5F5F4" transform="translate(988,256)"/>
<path d="M0 0 C0.33 0 0.66 0 1 0 C1.14285714 7.42857143 1.14285714 7.42857143 0 11 C-0.66 11 -1.32 11 -2 11 C-1.85957123 9.35369672 -1.71250671 7.70795821 -1.5625 6.0625 C-1.48128906 5.14597656 -1.40007812 4.22945313 -1.31640625 3.28515625 C-1 1 -1 1 0 0 Z " fill="#FCFEFE" transform="translate(427,254)"/>
<path d="M0 0 C1.32 0 2.64 0 4 0 C3.875 1.875 3.875 1.875 3 4 C-0.0625 5.25 -0.0625 5.25 -3 6 C-2 4 -1 2 0 0 Z " fill="#44D1CB" transform="translate(304,199)"/>
<path d="M0 0 C0.66 0.33 1.32 0.66 2 1 C-0.31 3.31 -2.62 5.62 -5 8 C-5.66 7.67 -6.32 7.34 -7 7 C-4.78071806 4.09197539 -3.07030857 2.04687238 0 0 Z " fill="#DAF6F5" transform="translate(695,257)"/>
<path d="M0 0 C0.66 0.33 1.32 0.66 2 1 C-0.64 3.64 -3.28 6.28 -6 9 C-6 6 -6 6 -3.5625 3.375 C-2.716875 2.59125 -1.87125 1.8075 -1 1 C-0.67 0.67 -0.34 0.34 0 0 Z " fill="#D9F6F5" transform="translate(1362,255)"/>
<path d="M0 0 C0.99 0.33 1.98 0.66 3 1 C1.02 3.31 -0.96 5.62 -3 8 C-3 4.42424104 -1.91159393 2.94704065 0 0 Z " fill="#36A196" transform="translate(193,251)"/>
<path d="M0 0 C2 0.3125 2 0.3125 4 1 C4.33 1.66 4.66 2.32 5 3 C3.02 3 1.04 3 -1 3 C-1 3.99 -1 4.98 -1 6 C-1.66 6 -2.32 6 -3 6 C-1.125 1.125 -1.125 1.125 0 0 Z " fill="#58E8E5" transform="translate(359,237)"/>
<path d="M0 0 C2 3 2 3 1.625 5.1875 C1.41875 5.785625 1.2125 6.38375 1 7 C1 6.01 1 5.02 1 4 C-0.65 4.66 -2.3 5.32 -4 6 C-2.68 4.02 -1.36 2.04 0 0 Z " fill="#D2F5F3" transform="translate(807,316)"/>
</svg>
